<svg width="217" height="224" viewBox="0 0 217 224" fill="none" xmlns="http://www.w3.org/2000/svg">
<path d="M101.295 0H116.553V0.109375L123.016 0.875L127.996 1.64062L133.082 2.73438L136.473 3.60938L140.181 4.70312L144.737 6.23438L147.28 7.21875L150.671 8.64062L153.85 10.0625L157.558 11.9219L159.995 13.2344L162.22 14.5469L164.975 16.1875L167.094 17.6094L168.26 18.375L169.531 19.25L171.333 20.5625L173.24 21.9844L175.147 23.5156L176.63 24.7188L177.796 25.7031L179.173 26.9062L180.763 28.3281L183.941 31.3906L187.332 34.8906L188.074 35.7656L189.027 36.75L189.981 37.9531L191.146 39.2656L192.1 40.4688L193.266 41.8906L194.219 43.2031L195.703 45.1719L198.246 48.8906L200.153 51.8438L201.636 54.3594L203.014 56.7656L204.391 59.3906L205.451 61.4688L206.616 63.875L208.312 67.8125L209.689 71.2031L210.854 74.4844L212.126 78.4219L213.186 82.0312L214.457 87.2812L215.411 92.2031L216.152 97.2344L216.788 103.141H217V120.641L216.788 120.531L216.364 124.906L215.729 129.828L215.093 133.547L214.245 137.594L213.397 141.094L212.55 144.156L211.384 147.984L210.007 151.922L208.417 155.969L207.04 159.141L205.769 161.875L204.709 164.062L203.332 166.578L202.272 168.547L201 170.734L199.835 172.594L199.093 173.797L198.246 175.109L196.974 176.969L195.915 178.5L194.537 180.359L193.266 182L192.524 182.984L189.981 186.047L188.815 187.359L188.074 188.234L187.12 189.219L186.378 190.094L183.624 192.938L182.776 193.703L181.716 194.797L180.869 195.562L179.385 196.875L177.796 198.297L176.63 199.281L174.829 200.703L172.922 202.234L169.743 204.531L167.836 205.844L165.505 207.375L163.916 208.359L161.69 209.672L159.995 210.656L157.24 212.188L153.956 213.828L151.307 215.031L147.916 216.453L144.737 217.656L140.923 218.969L137.32 220.062L132.234 221.375L127.466 222.359L123.334 223.016L117.188 223.781L115.281 224H100.447L100.023 223.781L92.8184 222.906L89.0039 222.25L84.2358 221.266L79.5737 220.062L75.0176 218.641L70.9912 217.219L66.9648 215.578L64.3159 214.375L60.6074 212.625L59.0181 211.75L57.3228 210.875L54.7798 209.453L52.1309 207.812L49.5879 206.172L47.9985 205.078L44.396 202.453L43.1245 201.469L41.5352 200.156L40.0518 198.953L38.8862 197.969L37.4028 196.656L36.3433 195.672L35.4956 194.906L33.8003 193.266L32.7407 192.172L31.8931 191.406L31.0454 190.531V190.312L30.7275 190.203L29.9858 189.328L28.6084 187.906L27.8667 187.031L26.8071 185.828L25.8535 184.625L24.7939 183.422L23.6284 181.891L22.7808 180.797L21.7212 179.375L18.9663 175.438L17.6948 173.469L15.9995 170.734L15.0459 169.094L13.4565 166.25L12.1851 163.844L10.0659 159.469L8.68848 156.297L7.09912 152.25L5.93359 148.969L4.66211 145.031L3.60254 141.203L2.54297 136.828L1.58936 131.906L0.847656 126.984L0.317871 122.281L0.105957 119.984L0 119.875V104.125L0.211914 102.812L0.847656 96.9062L1.58936 91.9844L2.64893 86.7344L3.81445 81.9219L4.97998 77.9844L6.25146 74.0469L7.84082 69.7812L9.00635 66.9375L10.3838 63.875L11.6553 61.1406L12.9268 58.625L14.3042 56.1094L15.8936 53.375L17.271 51.1875L18.4365 49.3281L19.708 47.4688L20.5557 46.2656L21.6152 44.7344L23.0986 42.7656L24.4761 41.0156L25.4297 39.8125L26.7012 38.2812L26.9131 37.9531H27.125L27.3369 37.5156L28.5024 36.2031L28.6084 35.9844H28.8203L29.0322 35.5469L30.0918 34.4531L30.8335 33.5781L32.9526 31.3906L33.8003 30.625L34.7539 29.6406L35.6016 28.875L36.6611 27.8906L37.5088 27.125L38.9922 25.8125L40.4756 24.6094L42.1709 23.1875L43.4424 22.2031L45.3496 20.7812L47.1509 19.4688L49.0581 18.1562L50.8594 16.9531L53.0845 15.5312L55.3096 14.2188L57.2168 13.125L60.2896 11.4844L63.7861 9.73438L67.2827 8.20312L70.2495 7L73.8521 5.6875L77.4546 4.48438L81.375 3.39062L85.8252 2.29688L90.3813 1.42188L95.4673 0.65625L101.295 0ZM90.2754 66.8281L44.9258 66.9375L45.5615 67.7031L102.99 126.984L103.202 127.094H113.798L114.646 126.328L172.074 67.0469V66.9375L121.639 66.8281H90.2754ZM39.6279 72.4062V155.094L40.0518 154.875L41.3232 153.562L41.959 153.016L42.5947 152.25L43.4424 151.484L46.4092 148.422V148.203L46.833 147.984V147.766L47.2568 147.547L48.9521 145.797V145.578L49.376 145.359V145.141L49.7998 144.922L51.4951 143.172V142.953L51.9189 142.734V142.516L52.3428 142.297L57.0049 137.484V137.266L57.4287 137.047V136.828L57.8525 136.609V136.391L58.2764 136.172V135.953L58.7002 135.734V135.516L59.124 135.297V135.078L59.5479 134.859V134.641H59.7598L60.3955 133.875L60.6074 133.766V133.547H60.8193V133.328H61.0312V133.109H61.2432V132.891L61.667 132.672V132.453H61.8789V132.234H62.0908V132.016H62.3027V131.797H62.5146V131.578H62.7266V131.359H62.9385V131.141H63.1504V130.922H63.3623V130.703H63.5742V130.484H63.7861V130.266H63.998V130.047H64.21V129.828H64.4219V129.609H64.6338V129.391H64.8457V129.172H65.0576V128.953H65.2695V128.734H65.4814V128.516H65.6934V128.297H65.9053V128.078H66.1172V127.859H66.3291V127.641H66.541V127.422H66.7529V127.203H66.9648L67.3887 126.766V126.547H67.6006V126.328H67.8125V126.109H68.0244V125.891L68.4482 125.672V125.453L68.8721 125.234V125.016L69.2959 124.797V124.578L69.7197 124.359V124.141L70.1436 123.922V123.703H70.3555V123.484H70.5674V123.266L70.9912 123.047V122.828L71.415 122.609V122.391L71.8389 122.172V121.953L72.2627 121.734V121.516L72.6865 121.297V121.078H72.8984V120.859H73.1104V120.641H73.3223L73.7461 120.203V119.984H73.958V119.766H74.1699V119.547H74.3818V119.328H74.5938L75.0176 118.891V118.672H75.2295V118.453H75.4414V118.234H75.6533V118.016H75.8652L76.2891 117.578V117.359H76.501V117.141H76.7129V116.922H76.9248V116.703H77.1367V116.484H77.3486V116.266H77.5605L78.3022 115.391L79.7856 113.859L79.5737 113.422L39.8398 72.4062H39.6279ZM177.054 72.5156L137.214 113.641L137.32 114.078L172.286 150.172H172.498L172.71 150.609L175.465 153.453L176.207 154.109L176.736 154.656L177.266 155.094V72.5156H177.054ZM84.9775 119.219L48.8462 156.516L48.6343 156.625V156.844L48.4224 156.953L48.5283 157.062H168.472L168.366 156.625L167.73 156.078L167.094 155.312L166.458 154.766L165.823 154L164.975 153.234L164.233 152.469L163.704 151.812L163.068 151.266L162.432 150.5L161.796 149.953L161.161 149.188L160.313 148.422L159.571 147.656L159.042 147L158.3 146.344L157.028 145.031L156.499 144.375L155.863 143.828L154.591 142.516L153.956 141.75L153.32 141.203L132.022 119.219L131.493 119.547L117.824 133.656L116.765 134.312L116.129 134.531L112.314 134.641H102.037L100.765 134.531L99.8115 134.094L98.9639 133.438L85.2954 119.328L84.9775 119.219Z" fill="#0077B6"/>
</svg>
