<svg width="512" height="512" viewBox="0 0 512 512" fill="none" xmlns="http://www.w3.org/2000/svg">
<g clip-path="url(#clip0_257_10)">
<path d="M239 0H275V0.25L290.25 2L302 3.75L314 6.25L322 8.25L330.75 10.75L341.5 14.25L347.5 16.5L355.5 19.75L363 23L371.75 27.25L377.5 30.25L382.75 33.25L389.25 37L394.25 40.25L397 42L400 44L404.25 47L408.75 50.25L413.25 53.75L416.75 56.5L419.5 58.75L422.75 61.5L426.5 64.75L434 71.75L442 79.75L443.75 81.75L446 84L448.25 86.75L451 89.75L453.25 92.5L456 95.75L458.25 98.75L461.75 103.25L467.75 111.75L472.25 118.5L475.75 124.25L479 129.75L482.25 135.75L484.75 140.5L487.5 146L491.5 155L494.75 162.75L497.5 170.25L500.5 179.25L503 187.5L506 199.5L508.25 210.75L510 222.25L511.5 235.75H512V275.5H511.5L510.5 285.5L509 296.75L507.5 305.25L505.5 314.5L503.5 322.5L501.5 329.5L498.75 338.25L495.5 347.25L491.75 356.5L488.5 363.75L485.5 370L483 375L479.75 380.75L477.25 385.25L474.25 390.25L471.5 394.5L469.75 397.25L467.75 400.25L464.75 404.5L462.25 408L459 412.25L456 416L454.25 418.25L448.25 425.25L445.5 428.25L443.75 430.25L441.5 432.5L439.75 434.5L433.25 441L431.25 442.75L428.75 445.25L426.75 447L423.25 450L419.5 453.25L416.75 455.5L412.5 458.75L408 462.25L400.5 467.5L396 470.5L390.5 474L386.75 476.25L381.5 479.25L377.5 481.5L371 485L363.25 488.75L357 491.5L349 494.75L341.5 497.5L332.5 500.5L324 503L312 506L300.75 508.25L291 509.75L276.5 511.5L272 512H237L236 511.5L219 509.5L210 508L198.75 505.75L187.75 503L177 499.75L167.5 496.5L158 492.75L151.75 490L143 486L139.25 484L135.25 482L129.25 478.75L123 475L117 471.25L113.25 468.75L104.75 462.75L101.75 460.5L98 457.5L94.5 454.75L91.75 452.5L88.25 449.5L85.75 447.25L83.75 445.5L79.75 441.75L77.25 439.25L75.25 437.5L73.25 435.5V435L72.5 434.75L70.75 432.75L67.5 429.5L65.75 427.5L63.25 424.75L61 422L58.5 419.25L55.75 415.75L53.75 413.25L51.25 410L47.75 405.25L44.5 400.5L42.5 397.75L40 393.75L36.5 388.25L29.5 376L27 371.25L24.25 365.5L21.25 359L17.5 350L14.25 341.25L11.25 332.25L8.5 322.75L6 312.75L3.75 301.5L2 290.25L0.75 279.5L0.25 274.25L0 274V238L0.5 235L2 221.5L3.5 212L5.25 202.75L7.75 192L11.25 179.75L14.25 170.75L17 163.25L20.5 154.75L24.25 146.5L27.75 139.25L31.75 131.75L34.5 127L37.5 122L43 113.5L45.75 109.5L49 105L51.5 101.5L54.75 97.5L57.5 94L63 87.5L63.5 86.75H64L64.5 85.75L67.75 82.25L69.5 80.25L71.25 78.5L73 76.5L77.75 71.75L79.75 70L82 67.75L84 66L86.5 63.75L88.5 62L92 59L95.5 56.25L99.5 53L102.5 50.75L107 47.5L111.25 44.5L115.75 41.5L120 38.75L125.25 35.5L130.5 32.5L135 30L142.25 26.25L150.5 22.25L158.75 18.75L165.75 16L174.25 13L182.75 10.25L192 7.75L202.5 5.25L213.25 3.25L225.25 1.5L239 0ZM150 100L145.75 100.75L142.75 102L140.25 103.5L137.5 105.75L133.5 109.75L133 110V110.5L132 111L127.25 115.75L125.25 117.5L115.25 127.5L113.5 129.5L110.25 133.75L107.75 138L105.75 142L104 146.25L102 153L101 157.75L100.25 164.75L100 168.75V173L100.5 180L101.5 187.75L103 195.5L105 203.25L108.25 213.25L110.25 218.5L113.25 225.75L116.25 232.25L118.5 237L121 241.75L124.25 247.75L127.75 253.75L132 260.75L135.75 266.5L139.5 272L142.5 276.25L145.75 280.75L149.5 285.75L153 290.25L156.25 294.25L158.25 296.75L161 300L163.25 302.75L165.75 305.5L168 308.25L169.75 310L171.5 312L174.25 315L177.25 318.25L179.25 320.25L179.5 320.75H180L180.5 321.75L190.5 331.75H191V332.25L193 334L194.5 335.5H195V336L197 337.75L201.25 341.75L203.25 343.5L205.75 345.75L208.5 348L211.25 350.5L213.75 352.5L217 355.25L220.5 358L224.25 361L229 364.5L233.25 367.75L238 371L241.5 373.5L245.25 376L251 379.75L256.75 383.25L261 385.75L266.25 388.75L274.75 393.25L283 397.25L291.75 401L300.5 404.25L305 405.75L312 407.75L319.5 409.5L326.5 410.75L336.5 411.75H346.25L353 411L358.25 410L363 408.75L369.25 406.5L373.25 404.5L377.25 402.25L380.75 399.75L384 397L386 395L388 393.25L393 388.25V387.75H393.5V387.25H394V386.75H394.5L396.25 384.75L398.5 382.5L400.25 380.5L405.5 375.25V374.75H406L408.25 372L409.75 369.5L411 366.5L411.75 363.25V358L410.75 353.75L408.75 349.75L406.75 347.25L355.25 295.75L352 293.5L348.75 292L346 291.25L344 291H340.25L336.5 291.75L333.5 293L330.75 294.75L328.25 297L314.5 310.75L311.75 313L308.25 315.25L305 316.75L301.25 318L297.5 318.75L294.75 319H292.25L288 318.5L284.25 317.5L280 315.75L274.5 312.75L267.5 308.5L263.5 306L258.75 302.75L255.25 300.25L250 296.25L246 293L243.25 290.75L240.25 288L238.25 286.25L235.75 284L233.75 282H233.25L233 281.25L231.25 279.75L230.75 279H230.25L229.75 278L225.75 274L223.5 271.25L220.5 268L217.75 264.5L215.25 261.5L212.25 257.5L209 253L206 248.5L202.5 243L199.25 237.5L196 231.5L194.5 228L193.25 223.25L193 221.5V215.25L194 210L195.5 206L197.5 202.25L200.25 198.5L216 182.75L218 180L219.75 176.5L220.75 172.5L221 169.5L220.5 165.25L219.25 161.5L217.75 158.75L215.75 156.25L164.25 104.75L161 102.5L158.25 101.25L154.5 100.25L152.25 100H150Z" fill="#0077B6"/>
</g>
<defs>
<clipPath id="clip0_257_10">
<rect width="512" height="512" fill="white"/>
</clipPath>
</defs>
</svg>
