<svg width="73" height="81" viewBox="0 0 73 81" fill="none" xmlns="http://www.w3.org/2000/svg">
<path d="M2.13867 25.4707H71.0039L71.0752 25.5103V69.5698L70.9683 70.3608L70.79 70.9937L70.5762 71.5869L70.2554 72.2593L69.9702 72.7339L69.5068 73.3667L68.9009 74.0391L68.4019 74.4741L68.0454 74.751L67.5107 75.1069L66.9048 75.4629L66.1562 75.7793L65.4434 76.0166L64.6592 76.1748L64.4097 76.2144L63.7681 76.2539H7.91309L7.2002 76.2144L6.41602 76.0562L5.56055 75.7397L4.8833 75.3442L4.38428 74.9487L3.95654 74.5137L3.63574 74.1577L3.2793 73.6436L2.85156 72.8525L2.56641 72.1011L2.35254 71.3496L2.20996 70.519L2.13867 69.8071L2.10303 68.146V25.6685L2.13867 25.4707ZM15.7905 34.3301L15.3271 34.4883L14.9707 34.7651L14.6855 35.1211L14.5073 35.5166L14.436 35.7539L14.4004 36.0308V42.3193L14.5073 42.873L14.6855 43.2686L14.8638 43.5059L15.1489 43.7432L15.5054 43.9409L15.7549 44.02L16.147 44.0596H21.2441L21.8145 43.9805L22.2422 43.7827L22.6343 43.4663L22.8838 43.0708L23.062 42.6357L23.1689 42.1216V36.1099L23.0977 35.6353L22.9551 35.2397L22.7056 34.8838L22.4561 34.6465L22.0283 34.4092L21.7432 34.3301H15.7905ZM32.7573 34.3301L32.2939 34.4883L31.9375 34.7651L31.688 35.042L31.4385 35.5957L31.3672 35.9912V42.3984L31.4741 42.873L31.6523 43.2686L31.9019 43.585L32.2939 43.8618L32.7217 44.02L33.1138 44.0596H38.4604L38.9951 43.9805L39.4229 43.7827L39.7793 43.4268L39.9575 43.1104L40.0645 42.8335L40.1357 42.1611V36.3076L40.1001 35.7935L39.9575 35.3188L39.708 34.9233L39.4229 34.6465L38.9951 34.4092L38.71 34.3301H32.7573ZM49.938 34.3301L49.4746 34.4883L49.1538 34.7256L48.8687 35.042L48.6191 35.5562L48.5479 35.9121V42.438L48.6548 42.9126L48.9043 43.3872L49.2251 43.7036L49.6528 43.9409L49.9023 44.02L50.2588 44.0596H55.5698L56.0332 44.02L56.4609 43.8618L56.7817 43.6245L57.0669 43.2686L57.2451 42.7939L57.2808 42.5962L57.3164 42.0425V37.8105L57.2808 35.833L57.1382 35.3584L56.9243 34.9629L56.6035 34.6465L56.2471 34.4487L55.855 34.3301H49.938ZM15.8618 55.7666L15.3984 55.8853L15.0063 56.1621L14.7568 56.439L14.543 56.8345L14.4004 57.4673V63.7954L14.543 64.4282L14.7568 64.7842L14.8994 64.9819L15.2559 65.2588L15.7549 65.4565L16.0044 65.4961H21.3154L21.8145 65.417L22.1709 65.2588L22.4561 65.061L22.6343 64.8633L22.8838 64.5073L23.0264 64.1909L23.1333 63.835L23.1689 63.5977V57.5859L23.0977 57.0718L22.9551 56.6763L22.7056 56.3203L22.4204 56.0435L22.0283 55.8457L21.6719 55.7666H15.8618ZM32.8286 55.7666L32.3652 55.8853L31.9731 56.1621L31.7236 56.439L31.5098 56.8345L31.4028 57.1904L31.3672 57.4277V63.835L31.4741 64.3096L31.6523 64.7051L31.9375 65.061L32.3652 65.3379L32.7217 65.4565L32.9712 65.4961H38.4961L38.9951 65.417L39.4229 65.2192L39.708 64.9819L39.9219 64.6655L40.0645 64.2305L40.1357 63.5977V57.665L40.0645 57.0718L39.9219 56.6763L39.6724 56.3203L39.4229 56.083L38.9951 55.8457L38.6387 55.7666H32.8286ZM50.0093 55.7666L49.6172 55.8457L49.2964 56.0435L48.9399 56.3994L48.7261 56.7554L48.5835 57.1509L48.5479 57.3486V63.8745L48.6548 64.3491L48.833 64.7051L49.1182 65.061L49.5459 65.3379L49.9023 65.4565L50.1519 65.4961H55.6411L56.1758 65.417L56.6035 65.2192L56.96 64.8633L57.1382 64.5469L57.2808 64.0327L57.3164 63.4395V59.5239L57.2808 57.2695L57.1738 56.874L56.9956 56.5181L56.7461 56.2017L56.354 55.9248L56.0332 55.8062L55.8193 55.7666H50.0093Z" fill="#0077B6"/>
<path d="M7.27148 4.74609H14.1152L14.1865 4.8252L14.2222 12.1421L14.3291 12.7354L14.5786 13.2495L14.9351 13.6846L15.3984 14.001L15.7905 14.1592L15.9688 14.1987H16.6816L17.145 14.0405L17.5371 13.8032L17.8936 13.4473L18.1431 13.0913L18.3213 12.6562L18.3926 12.2607L18.4282 4.78564L18.4639 4.74609H52.7539L52.8252 4.78564L52.8608 11.9839L52.9321 12.5771L53.1104 13.0518L53.4312 13.5264L53.7876 13.8428L54.2153 14.0801L54.6074 14.1987L55.0352 14.2383L55.6055 14.1196L56.1758 13.8032L56.4966 13.5264L56.8174 13.0518L56.9956 12.5376L57.0312 12.3398L57.0669 11.5488V4.9043L57.1025 4.74609H63.9819L64.9087 4.86475L65.7285 5.10205L66.4058 5.37891L67.2256 5.81396L67.9741 6.32812L68.4731 6.76318L68.8296 7.11914L69.1504 7.43555L69.3999 7.75195L69.792 8.30566L70.1128 8.85938L70.3979 9.49219L70.5762 9.9668L70.7544 10.6392L70.8613 11.3906V20.4873L2.38818 20.5269L2.13867 20.4873L2.10303 18.668V12.2607L2.13867 11.1138L2.28125 10.0459L2.53076 9.05713L2.85156 8.22656L3.17236 7.59375L3.49316 7.07959L3.9209 6.52588L4.20605 6.20947L4.70508 5.77441L5.16846 5.45801L5.73877 5.1416L6.27344 4.94385L6.91504 4.78564L7.27148 4.74609Z" fill="#0077B6"/>
</svg>
