<svg width="84" height="126" viewBox="0 0 84 126" fill="none" xmlns="http://www.w3.org/2000/svg">
<path d="M20.0469 3.86187L38.5198 0.542559L40.8006 13.2358L41.894 13.1008L44.7326 12.9599L47.3788 12.915L50.3956 12.9881L52.871 13.1585L54.716 13.3191L56.4363 13.5636L57.6509 13.7145L60.1798 14.1828L62 14.5939L63.4604 14.9467L65.4587 15.5719L66.424 15.8906L66.5915 16.045L66.3744 16.3916L65.869 17.4667L65.2035 18.8166L64.3886 20.5009L63.8725 21.5164L63.3672 22.5915L62.4953 24.3476L62.0362 25.2913L61.4739 26.4381L60.6589 28.1225L59.8902 29.6755L59.3742 30.691L59.0076 31.372L58.5802 31.3258L57.3228 30.9365L56.0761 30.6069L54.1206 30.2201L51.6131 29.8709L49.0593 29.6531L46.3916 29.5788L43.6776 29.6359L41.2665 29.823L38.6738 30.1659L36.9821 30.4698L34.2969 31.0754L31.4408 31.8962L29.0797 32.751L27.3277 33.4965L25.9816 34.1689L24.2048 35.1649L22.7769 36.1597L21.869 36.938L21.278 37.5363L20.744 38.0629L20.6977 38.1942L20.5624 38.2185L20.5838 38.3377L20.4485 38.362L20.356 38.6247L19.8541 39.3301L19.338 40.3455L18.9894 41.5155L18.8473 42.2792L18.8263 43.3288L18.855 43.8773L19.0156 44.7711L19.5506 46.582L20.0033 47.5465L20.5806 48.427L21.1935 49.1166L22.02 49.8293L22.8929 50.4107L23.7336 50.8133L24.7203 51.2511L26.6402 51.8289L27.9653 52.2059L30.6403 52.7096L32.293 52.9662L34.081 53.1986L36.7239 53.5234L41.9775 53.9943L43.9685 54.1902L47.0174 54.4421L49.5818 54.7195L52.6521 55.0906L54.4401 55.3229L56.8907 55.7438L58.1944 56.0017L60.8124 56.5771L62.946 57.1779L64.4278 57.6499L66.4476 58.3943L68.5778 59.3649L69.4185 59.7674L70.1915 60.1822L70.6511 60.4072L71.132 60.7514L73.013 61.8898L73.9073 62.5904L75.0473 63.4928L75.7955 64.1581L76.8217 65.204L77.9476 66.4166L78.8599 67.606L79.904 69.1409L80.8343 70.8192L81.6077 72.4027L82.5847 75.1184L83.0198 76.7627L83.3445 78.1808L83.5372 79.2534L83.7373 80.7554L83.82 82.7706L83.76 84.3808L83.5399 86.2658L83.0813 88.3783L82.3058 90.6707L81.7079 92.0085L81.0887 93.227L80.5512 94.1233L79.9568 95.0914L79.284 96.012L78.8853 96.5142L78.4973 97.0761L78.3619 97.1004L78.3834 97.2196L77.917 97.734L77.3367 98.3919L76.6887 99.062L75.7346 99.9717L74.5312 101.049L73.0001 102.247L72.0138 102.978L69.8952 104.404L67.9937 105.484L66.5907 106.228L64.2725 107.322L61.6053 108.416L58.4537 109.536L58.1153 109.597L60.4497 122.588L41.9768 125.907L39.5319 112.69L35.6034 112.596L32.5546 112.344L30.8449 112.159L27.8993 111.704L26.1575 111.341L23.7532 110.788L22.136 110.341L20.3621 109.798L19.1724 109.397L18.118 108.971L16.7715 108.475L15.7847 108.037L14.5629 107.457L13.7222 107.054L12.7247 106.557L11.2356 105.656L10.003 105.016L9.89254 104.79L10.3589 104.275L11.281 103.187L12.0784 102.182L12.5447 101.668L13.0574 101.022L13.5237 100.508L14.1503 99.7184L14.2856 99.6941L14.2642 99.5749L14.7306 99.0605L15.1863 98.4865L15.6526 97.9721L16.2222 97.2546L16.3575 97.2302L16.3361 97.1111L16.8025 96.5966L17.3721 95.8791L17.8385 95.3647L18.408 94.6472L18.8744 94.1328L19.387 93.487L19.8534 92.9726L20.5939 92.0398L21.0603 91.5254L21.2311 91.3102L21.5232 91.3807L22.0718 91.7128L22.6881 92.0326L23.7746 92.6371L24.9858 93.1577L26.343 93.7135L27.6788 94.1502L29.2283 94.61L30.621 94.9749L32.8686 95.4323L35.6575 95.7924L37.6378 95.9287L39.6751 95.9932L41.6909 95.9386L43.347 95.8255L45.2631 95.6043L48.2404 95.0693L50.452 94.5489L53.1728 93.7524L55.3985 92.9219L56.9582 92.2725L59.1304 91.144L60.2627 90.4484L61.3167 89.7054L62.4062 88.7714L63.1681 87.9578L63.7946 87.1686L64.3783 86.1409L64.8053 85.0184L64.983 84.0638L65.0039 83.0142L64.836 81.691L64.5542 80.5113L64.1049 79.1772L63.4527 77.8795L62.6972 76.7849L61.8385 75.8934L61.101 75.2878L60.3849 74.8013L59.4444 74.2321L57.9305 73.5813L56.5163 73.0972L54.6071 72.5791L52.5055 72.157L50.055 71.7361L47.4121 71.4112L45.4104 71.1558L33.5533 70.0874L29.0548 69.5424L26.9746 69.2395L25.0975 68.9001L23.9399 68.6775L22.85 68.4427L21.0191 67.972L19.3236 67.4769L17.9878 67.0403L16.4169 66.4613L15.049 65.8459L13.7595 65.2779L12.7513 64.7208L11.5757 64.0093L10.9594 63.6894L10.0866 63.1081L9.19234 62.4075L8.14135 61.6121L7.21498 60.7328L5.76483 59.2709L4.8633 58.141L3.74078 56.5587L2.82125 54.94L2.16897 53.6423L1.25628 51.2841L0.87467 49.9378L0.624969 48.9369L0.132405 46.1957L0.0107476 44.7411L-0.00428194 42.7138L0.208522 40.3994L0.691991 38.0364L1.36433 35.9471L1.90521 34.6811L2.30734 33.8091L2.9373 32.6501L3.36084 31.8974L3.96597 30.9889L4.45718 30.224L6.05202 28.2149L6.69997 27.5449L7.46185 26.7313L8.41601 25.8216L9.56247 24.8159L10.5381 24.0254L11.8306 23.055L12.8845 22.312L14.64 21.1968L16.5415 20.117L18.8489 18.9641L20.4656 18.243L22.2854 17.4854L22.41 17.4015L20.0469 3.86187Z" fill="#0077B6"/>
</svg>
