<svg width="99" height="98" viewBox="0 0 99 98" fill="none" xmlns="http://www.w3.org/2000/svg">
<path d="M48.7363 3.24393L56.1184 1.5526L56.1288 1.59829L59.4225 1.1803L61.9235 0.943925L64.1376 0.821351L66.4718 0.767458L68.0914 0.781098L70.2979 0.85264L71.9385 0.957664L73.7981 1.10866L75.8874 1.35133L76.9725 1.53553L77.969 1.78812L78.7673 2.08611L79.537 2.48684L80.1085 2.93297L80.6019 3.49319L80.8761 4.00743L81.0827 4.68145L81.1434 5.62932L81.0165 6.66829L80.6501 8.48344L80.2085 10.6525L79.9071 12.068L79.577 13.5863L79.2547 14.9105L79.0258 15.7324L78.7942 16.3145L78.3853 17.0333L77.924 17.5237L77.3923 17.9341L76.5424 18.3211L75.7992 18.4914L74.5683 18.5811L70.9718 18.5876L68.7757 18.5617L65.6461 18.5574L63.2128 18.634L61.515 18.7345L59.3218 18.9484L57.1 19.2651L56.3463 19.3897L54.7504 19.7072L53.5614 19.9797L51.6501 20.5137L49.7597 21.1392L47.9894 21.8333L46.2895 22.6075L44.6602 23.4617L43.0517 24.4073L41.9674 25.1366L40.6771 26.1055L39.9396 26.7554L38.918 27.7589L38.2509 28.4888L37.722 29.139L37.3207 29.6637L36.6851 30.5307L36.1875 31.3179L35.8568 31.9227L35.4479 32.6415L34.9922 33.6115L34.5185 34.73L34.2296 35.5175L33.9798 36.248L33.6156 37.3894L33.2827 38.6679L33.1711 39.3186L41.0096 37.5708L54.5848 34.4606L55.1507 34.4271L56.0271 34.611L56.6063 34.863L57.2379 35.3435L57.6712 35.8694L57.854 36.2122L59.5395 43.5685L59.4878 44.2536L59.238 44.9841L58.8968 45.5431L58.4747 45.9765L57.982 46.3298L57.4189 46.6031L32.8944 52.2219L34.0878 57.4307L58.6618 51.8005L59.2878 51.8014L59.8356 51.9163L60.5243 52.1913L61.0149 52.5117L61.5682 53.1063L61.832 53.5748L63.5174 60.9311L63.4658 61.6162L63.2837 62.1869L62.992 62.7346L62.5803 63.2137L62.0486 63.624L61.2978 63.9884L39.0028 69.0965L40.0838 70.6281L40.9714 71.7713L42.1096 73.0974L42.9344 73.9664L43.8688 74.8584L44.7718 75.6133L45.5338 76.2082L46.2149 76.6773L46.776 77.0777L48.5163 78.0736L49.1555 78.3599L50.1443 78.8066L51.0522 79.1276L51.9001 79.4143L53.0661 79.7242L54.0026 79.9424L55.5154 80.1729L57.1169 80.335L58.6975 80.4056L60.3666 80.4079L62.5808 80.2854L64.2081 80.1049L65.8745 79.8674L66.7272 79.7201L69.4521 79.0958L71.6007 78.4592L73.3919 77.8565L75.3109 77.1283L77.308 76.286L80.1341 74.9653L83.9274 73.0863L86.5553 71.811L87.7025 71.3558L88.842 71.0947L89.6766 71.0958L90.394 71.2681L90.9836 71.5658L91.5342 71.9206L92.2076 72.5838L93.0639 73.5899L94.3849 75.2589L95.343 76.482L96.6144 78.1624L97.7345 79.637L98.3821 80.6428L98.5858 81.077L98.8266 82.1279L98.7855 82.8587L98.5747 83.5321L98.3222 84.0228L98.1268 84.308L97.7646 84.7757L97.1157 85.3572L96.1799 86.0525L94.5533 87.1465L92.8668 88.2061L91.2088 89.1631L89.4022 90.1541L87.061 91.3156L84.8867 92.2947L82.8896 93.137L80.2484 94.1268L76.7154 95.321L69.7296 96.9215L69.7192 96.8758L68.5482 96.9998L65.9091 97.3159L63.6063 97.5069L61.1235 97.5949L59.0371 97.592L56.8801 97.5091L54.7623 97.3692L52.8321 97.1381L51.1601 96.896L49.5273 96.5969L47.3256 96.0914L46.3787 95.8275L44.9231 95.3916L44.0752 95.1049L42.9378 94.6923L41.8499 94.2683L40.9211 93.8559L39.6427 93.2832L38.8129 92.8481L38.3433 92.6191L37.8032 92.31L37.3336 92.081L36.4934 91.6002L36.0628 91.3142L35.5227 91.0051L35.0921 90.719L34.4816 90.33L33.9805 89.9639L33.2994 89.4947L32.4774 88.8655L31.5249 88.122L30.6219 87.3671L29.5074 86.3721L28.4426 85.3657L27.4167 84.3023L26.5214 83.3533L25.3232 81.9928L24.3756 80.8153L23.5584 79.7522L22.8613 78.7578L21.8899 77.2491L20.3804 74.7577L19.691 73.5691L8.97892 75.9753L8.35298 75.9744L7.58608 75.8135L6.94688 75.5272L6.37536 75.081L5.942 74.5552L5.75917 74.2123L5.57354 73.6297L4.09749 67.1873L4.06049 66.5706L4.17212 65.9198L4.48193 65.2237L4.79454 64.7673L5.35487 64.2542L5.99615 63.8669L6.6793 63.6623L15.1018 61.7326L13.9294 56.6151L4.90184 58.6354L4.16635 58.6115L3.49854 58.4279L2.84887 58.0959L2.26688 57.604L1.88307 57.0668L1.60601 56.3128L0.119502 49.8246L0.100641 49.0595L0.222742 48.4545L0.582097 47.747L0.944249 47.2793L1.4655 46.8232L2.11725 46.4815L13.502 43.8251L13.5069 43.3911L13.8334 40.7195L14.1397 38.87L14.4592 37.306L14.7425 36.0389L15.4005 33.676L15.6217 33.0483L15.8038 32.4776L16.2748 31.1193L16.6418 30.2177L17.2509 28.7797L17.6675 27.8668L18.0269 27.1593L18.493 26.2349L18.9019 25.5161L19.1935 24.9684L19.6129 24.2952L19.9541 23.7361L20.2172 23.2912L20.4907 22.8919L20.7538 22.4469L21.3399 21.5912L21.663 21.1806L22.0147 20.6672L22.1138 20.6445L22.0928 20.5531L22.5436 20.017L23.0621 19.3212L23.6405 18.6597L24.3362 17.827L25.131 16.9717L25.5923 16.4813L26.2698 15.7971L26.9969 15.1015L27.5573 14.5884L28.4225 13.8131L29.4755 12.9467L30.1349 12.4109L31.1593 11.6472L32.5981 10.6443L34.2352 9.59594L36.1199 8.49087L38.0752 7.46582L39.9523 6.55486L42.2753 5.54174L44.0951 4.83625L46.3609 4.0286L48.7363 3.24393Z" fill="#0077B6"/>
</svg>
