<svg width="140" height="143" viewBox="0 0 140 143" fill="none" xmlns="http://www.w3.org/2000/svg">
<g clip-path="url(#clip0_177_103)">
<path d="M65.3516 0H75.1953V0.0698242L79.3652 0.558594L82.5781 1.04736L85.8594 1.74561L88.0469 2.3042L90.8496 3.14209L93.3105 3.97998L95.2246 4.67822L97.207 5.51611L99.2578 6.42383L101.65 7.61084L103.223 8.44873L104.658 9.28662L106.299 10.2642L107.803 11.2417L109.17 12.1494L110.537 13.127L111.768 14.0347L112.998 15.0122L113.955 15.7803L114.707 16.4087L115.664 17.2466L116.348 17.875L117.1 18.5034L117.988 19.4111L118.125 19.481V19.6206L118.398 19.7603L120.859 22.2739L121.338 22.8325L121.816 23.3213L122.295 23.8799L123.115 24.8574L123.73 25.5557L124.277 26.2539L125.781 28.209L126.602 29.3262L127.559 30.7227L128.379 31.9097L128.994 32.8872L129.883 34.3535L130.771 35.8896L131.387 37.0068L132.412 38.9619L133.438 41.0566L134.326 43.0815L135.352 45.665L136.035 47.5503L136.855 50.064L137.676 52.9268L138.428 56.0688L138.975 58.8618L139.453 62.0737L139.863 65.8442H140V76.9463H139.863L139.59 79.7393L139.18 82.8813L138.77 85.1855L138.291 87.5596L137.676 90.0732L136.924 92.7266L136.104 95.2402L135.488 96.9858L134.463 99.5693L133.438 101.874L132.617 103.619L131.592 105.644L130.635 107.32L130.225 108.018L129.814 108.786L128.857 110.252L128.584 110.741L127.9 111.789L127.012 113.045L126.191 114.232L125.234 115.489L124.482 116.467L123.867 117.235L122.979 118.282L122.363 118.98L121.885 119.539L121.27 120.237L120.723 120.796L120.654 120.936H120.518L120.381 121.215L118.467 123.17L117.92 123.659L117.305 124.287L116.758 124.776L116.074 125.404L115.322 126.033L114.297 126.94L113.408 127.639L112.451 128.407L111.357 129.245L110.195 130.083L108.691 131.13L107.529 131.898L106.094 132.806L104.316 133.853L102.607 134.831L101.445 135.459L99.873 136.227L97.1387 137.484L94.8828 138.392L92.4219 139.299L89.8242 140.137L87.0215 140.905L83.6719 141.673L81.0059 142.162L77.3828 142.651L74.7852 142.93L74.375 143H64.8047L64.5312 142.86L59.8828 142.302L57.4219 141.883L54.3457 141.254L51.6113 140.556L48.6035 139.648L45.8008 138.671L43.2031 137.624L41.1523 136.716L38.6914 135.529L36.709 134.481L35.1367 133.574L33.291 132.457L31.582 131.339L30.4883 130.571L29.3262 129.733L28.3691 129.035L27.4805 128.337L26.5234 127.569L25.4297 126.661L24.6777 126.033L23.9258 125.334L23.1738 124.706L22.5586 124.078L22.0117 123.589L21.123 122.681L20.5762 122.192L20.0977 121.704L19.6191 121.145L18.5254 120.028L18.0469 119.469L17.2949 118.631L16.6797 117.863L16.0645 117.165L15.3125 116.188L14.4922 115.14L13.6035 113.953L11.9629 111.579L11.2793 110.532L10.459 109.205L9.91211 108.297L8.88672 106.482L7.92969 104.736L6.49414 101.804L5.60547 99.7788L4.58008 97.1953L3.82812 95.1006L3.07617 92.7964L2.39258 90.4224L1.70898 87.6294L1.09375 84.627L0.615234 81.5547L0.273438 78.7617L0.0683594 76.5972L0 76.5273V66.4727L0.136719 65.6348L0.546875 61.8643L0.957031 59.2109L1.43555 56.6274L2.11914 53.625L3.07617 50.2036L3.89648 47.6899L4.64844 45.5952L5.60547 43.2212L6.63086 40.917L7.58789 38.8921L8.27148 37.6353L8.68164 36.8672L9.29688 35.6802L9.84375 34.7725L10.5273 33.6553L11.6211 31.9097L12.5098 30.583L13.4668 29.2563L13.9453 28.5581L14.9023 27.3013L15.791 26.1841L16.4062 25.416L17.2949 24.3687L17.3633 24.229H17.5L17.6367 23.9497L18.5254 22.9722L19.0039 22.4136L19.4824 21.9248L19.9609 21.3662L20.9863 20.3188H21.123L21.2598 20.0396L21.8066 19.5508L22.4219 18.9224L22.9688 18.4336L23.6523 17.8052L24.1992 17.3164L25.1562 16.4785L26.1133 15.7104L27.207 14.8027L28.0273 14.1743L29.2578 13.2666L30.4199 12.4287L31.4453 11.7305L32.6074 10.9624L33.7012 10.2642L35.0684 9.42627L36.7773 8.44873L39.0332 7.26172L41.1523 6.21436L43.4082 5.23682L45.8691 4.25928L49.082 3.14209L51.9531 2.3042L54.7559 1.60596L57.1484 1.11719L60.5664 0.558594L62.8223 0.279297L65.3516 0ZM68.8379 24.9971L66.7188 25.1367L64.1211 25.4858L62.0703 25.9048L60.0195 26.4634L57.9688 27.1616L56.123 27.9297L54.1406 28.9072L52.8418 29.6055L51.8164 30.2339L49.9707 31.4907L48.5352 32.6079L47.7832 33.2363L46.8262 34.0742L46.4844 34.3535V34.4932H46.3477V34.6328L46.0742 34.7725L44.8438 36.0293L44.3652 36.5879L43.6133 37.4258L42.1094 39.3809L41.2891 40.5679L40.4004 41.9644L39.5801 43.4307L38.623 45.3159L37.8711 47.0615L37.1191 49.1562L36.5039 51.251L36.0254 53.3457L35.752 54.8818L35.5469 56.3481L35.3418 59.4204V61.166L35.5469 63.2607L35.8887 65.0762L36.3672 67.0312L37.1875 69.5449L37.9395 71.5698L38.6914 73.3154L39.4434 74.9912L41.0156 78.2031L41.9043 79.8091L42.9297 81.6943L43.4766 82.6021L44.0918 83.6494L45.1172 85.3252L45.9375 86.6519L48.2617 90.2129L49.0137 91.3301L49.834 92.5171L52.5 96.2876L54.1406 98.522L54.8242 99.4297L55.918 100.896L56.7383 101.943L57.627 103.13L58.584 104.317L59.3359 105.295L60.293 106.482L61.5234 108.018L62.2754 108.926L62.8906 109.694L64.5312 111.649L65.1465 112.417L65.9668 113.325L66.4453 113.883L67.2656 114.861L68.0176 115.699L68.4961 116.327H68.6328L68.7695 116.606L69.7949 117.724L70.0684 117.863L70.5469 117.375L71.0254 116.816L71.7773 115.978V115.838H71.9141L72.3926 115.28L72.7344 114.861V114.721H72.8711L73.4863 113.953L73.6914 113.744V113.604H73.8281L74.3066 113.045L76.7676 110.113L77.3828 109.345L77.9297 108.716L78.6816 107.739L79.4336 106.831L80.6641 105.295L81.2109 104.597L81.9629 103.619L82.8516 102.502L83.6035 101.524L84.9707 99.709L86.0645 98.2427L87.7051 96.0083L88.5254 94.8213L90.3027 92.3076L91.3965 90.7017L92.2852 89.375L93.3789 87.6992L94.1309 86.5122L95.0879 84.9761L95.8398 83.7192L96.8652 81.9736L97.8906 80.1582L98.916 78.2729L100.078 75.9688L101.035 73.9438L101.787 72.1982L102.539 70.2432L103.223 68.2881L103.838 66.1934L104.385 63.6099L104.59 61.8643V58.373L104.385 56.0688L104.043 53.7646L103.633 51.8794L103.086 49.8545L102.402 47.8296L101.582 45.8047L100.83 44.1987L100.01 42.6626L99.2578 41.4058L98.7109 40.5679L97.8223 39.2412L97.1387 38.4033L96.6602 37.7749L95.7715 36.7275L94.9512 35.8198L93.5156 34.3535L92.9688 33.8647L92.0117 33.0269L90.7812 32.0493L89.5508 31.1416L88.0469 30.1641L86.6113 29.3262L85.0391 28.4883L83.3984 27.7202L81.416 26.9521L79.502 26.3237L77.8613 25.9048L76.1523 25.5557L74.375 25.2764L72.3242 25.0669L70.8203 24.9971H68.8379Z" fill="#0077B6"/>
<path d="M68.9746 46.2935H71.0254L72.5293 46.5029L73.6914 46.7822L75.332 47.4106L76.4258 47.9692L77.5195 48.6675L78.4766 49.4355L79.2969 50.2036L79.9121 50.832L80.6641 51.8096L81.3477 52.8569L82.0996 54.3232L82.6465 55.8594L82.9883 57.3257L83.125 58.3032L83.1934 59.7695L83.125 61.2358L82.9199 62.4927L82.5781 63.8892L82.0312 65.2856L81.4844 66.4028L80.8008 67.52L80.2539 68.2183L79.4336 69.1958L78.8184 69.8242L77.8613 70.5923L76.8359 71.2905L75.4004 72.0586L73.9648 72.6172L72.5293 72.9663L71.1621 73.1758H68.7695L67.334 72.9663L65.8301 72.5474L64.7363 72.1284L63.3691 71.4302L62.3438 70.7319L61.3867 69.9639L59.8828 68.4277L59.1992 67.52L58.3105 66.0537L57.6953 64.7271L57.2168 63.1909L56.9434 61.8643L56.8066 60.7471V58.8618L56.9434 57.6748L57.2168 56.3481L57.627 55.0215L58.1055 53.9043L58.5156 53.0664L59.2676 51.8794L59.8828 51.0415H60.0195L60.1562 50.7622L60.8398 49.9941L62.3438 48.7373L63.7793 47.8296L64.9414 47.271L66.582 46.7124L68.291 46.3633L68.9746 46.2935Z" fill="#0077B6"/>
</g>
<defs>
<clipPath id="clip0_177_103">
<rect width="140" height="143" fill="white"/>
</clipPath>
</defs>
</svg>
