<svg width="105" height="150" viewBox="0 0 105 150" fill="none" xmlns="http://www.w3.org/2000/svg">
<path d="M21.988 0.342324L97.5598 13.1488L99.1137 13.7264L100.706 14.7295L101.942 15.8819L102.677 16.7399L103.523 18.2451L104.104 20.0197L104.311 22.0453L103.914 24.3875L103.051 26.2318L101.918 27.716L100.872 28.6911L100.658 28.6549L100.375 29.0259L99.0423 29.7429L97.637 30.2381L96.0521 30.4934L94.2877 30.5086L76.2873 27.563L75.3412 27.2979L76.4221 29.3668L77.541 31.8612L78.4459 34.3193L79.2989 37.0829L79.9759 40.2358L80.3663 43.1305L80.5944 45.6834L80.6669 45.9052L91.3539 47.821L93.1218 48.4349L94.32 49.1618L95.6806 50.2304L96.7752 51.5683L97.3865 52.51L97.9459 53.7572L98.3293 55.3936L98.4261 56.7719L98.0292 59.1142L97.3249 60.671L96.2995 62.1734L95.3776 63.0648L94.2416 63.92L93.0332 64.5533L91.2895 65.0959L89.4905 65.3148L87.8504 65.2464L77.3602 63.4687L76.939 64.6545L75.7411 67.1753L74.3117 69.7617L72.8271 72.0244L71.1112 74.3527L69.5886 76.1899L67.9762 77.9071L66.3983 79.4207L64.9792 80.6469L63.4531 81.8549L62.0685 82.8774L59.0853 84.8862L57.7526 85.6032L55.8155 86.6369L53.7887 87.5505L51.4235 88.5116L48.5059 89.4839L45.6227 90.2524L42.4357 90.8647L39.6216 91.226L36.5036 91.4309L32.9747 91.4615L31.3346 91.3931L30.6923 91.2842L30.6578 91.4879L31.0515 91.7641L43.352 108.201L43.9079 108.819L57.3756 126.816L57.9316 127.434L58.453 128.255L59.1886 129.113L63.8574 135.352L64.7035 136.857L65.2837 138.632L65.453 140.232L65.4565 140.861L65.1803 142.491L64.7247 143.88L63.8063 145.401L62.7083 146.681L61.3238 147.704L60.3466 148.271L58.4787 148.898L56.2343 149.146L55.6818 149.157L53.4339 148.776L51.7903 148.079L50.592 147.352L49.2488 146.181L47.8847 144.483L2.36392 83.6551L1.51785 82.1498L0.937631 80.3753L0.751067 78.877L0.74757 78.2478L1.07546 76.3129L1.81427 74.5524L2.41501 73.6066L3.22984 72.697L4.13445 71.9075L4.89751 71.3034L5.11159 71.3397L5.14611 71.136L6.69298 70.4553L8.08103 70.062L9.54161 69.8904L11.5029 70.0133L31.1089 73.231L34.1578 73.4334L37.1515 73.3121L39.8586 72.9327L42.1547 72.379L44.1298 71.7708L46.6193 70.726L48.3077 69.8598L49.9063 68.8735L51.3979 67.8692L52.5511 66.9122L53.8459 65.7697L55.1925 64.3217L56.8739 62.1971L58.1997 60.2218L14.2053 52.7664L12.5272 52.2725L11.2046 51.6294L9.63003 50.5244L8.42831 49.1684L7.63751 47.9868L6.93299 46.2959L6.60137 44.354L6.64615 42.7902L7.02932 41.1789L7.71635 39.7239L8.45865 38.5926L9.53933 37.4138L9.75342 37.4501L10.0365 37.079L11.5281 36.0746L13.2891 35.4302L14.7669 35.1568L16.5314 35.1415L61.8275 42.7127L61.4441 41.0763L60.6635 38.5345L59.7967 36.5019L58.9679 34.8948L57.925 33.2514L57.6556 32.8914L57.6902 32.6878L57.4761 32.6515L56.9546 31.8298L56.668 31.5717L56.7025 31.368L56.3089 31.0918L55.304 29.8739L53.6016 28.2235L51.471 26.5005L49.1989 24.9631L47.2859 23.9056L44.9274 22.8773L43.3736 22.2997L41.2672 21.7333L38.5014 21.1598L19.4651 17.8291L17.6972 17.2152L16.499 16.4884L15.3353 15.5578L14.2233 14.3218L13.2875 12.6965L12.7073 10.922L12.5035 9.52556L12.531 8.06355L12.9141 6.45229L13.6184 4.89544L14.7509 3.41116L15.7971 2.43606L16.6844 1.74833L16.8985 1.78461L16.933 1.58094L18.4799 0.900213L19.8679 0.506861L21.4355 0.353464L21.988 0.342324Z" fill="#0077B6"/>
</svg>
