<svg width="63" height="80" viewBox="0 0 63 80" fill="none" xmlns="http://www.w3.org/2000/svg">
<path d="M1.40816 3.12175L14.2887 2.45723L14.2926 2.5333L14.545 2.59655L14.9296 2.80553L15.3219 3.16665L15.6334 3.57009L16.0435 4.27353L16.4949 4.97483L17.8551 7.19285L18.3066 7.89416L19.9389 10.5558L20.3903 11.2571L21.5692 13.1794L22.0206 13.8807L23.8796 16.912L24.3311 17.6133L25.7366 19.9052L26.1881 20.6065L27.7297 23.1203L28.1811 23.8216L29.7227 26.3353L30.3595 27.4085L30.9528 28.4457L31.5935 29.5949L32.2834 30.894L32.9714 32.1552L33.2473 32.6749L33.2966 32.8249L33.3794 32.8206L33.9359 31.5334L34.5654 30.0517L34.899 29.2718L35.3805 28.141L36.0475 26.5811L37.1604 24.0067L37.8649 22.3686L38.4589 21.0032L39.051 19.5997L39.4239 18.7796L39.9054 17.6488L40.4994 16.2834L41.0559 14.9961L41.4624 14.0217L41.7229 13.4363L42.2064 12.3435L42.8734 10.7836L43.4674 9.41819L44.0239 8.13098L44.4323 7.19463L45.0993 5.63475L45.6933 4.26933L46.2498 2.98211L46.6583 2.04576L46.9208 1.4983L47.1536 1.1812L47.554 0.893586L47.7966 0.766659L47.836 0.726487L60.5095 0.0726513L60.9768 0.27736L61.32 0.488478L61.6709 0.851738L61.9449 1.33338L61.9942 1.48338L62.0217 2.01588L61.8815 2.51888L61.2797 3.73217L60.8258 4.59458L60.2595 5.69163L59.8057 6.55404L59.2769 7.57288L58.9355 8.20067L58.7086 8.63188L58.2568 9.53234L57.8029 10.3948L57.2366 11.4918L56.7828 12.3542L56.254 13.373L55.9126 14.0008L55.6857 14.4321L55.2339 15.3325L54.78 16.1949L54.2137 17.292L53.7599 18.1544L53.2311 19.1732L52.8897 19.801L52.6628 20.2322L52.211 21.1327L51.7571 21.9951L51.1908 23.0921L50.737 23.9546L50.2082 24.9734L49.8668 25.6012L49.6399 26.0324L49.1881 26.9328L48.7342 27.7953L48.1679 28.8923L47.7141 29.7547L47.2228 30.6953L46.8439 31.4014L46.617 31.8326L45.9382 33.1642L45.4844 34.0266L44.6912 35.5549L57.6151 34.9263L58.116 34.9767L58.7096 35.213L59.1434 35.572L59.4115 35.9396L59.5573 36.3515L59.6203 36.7678L59.899 42.1688L59.8515 42.8577L59.7054 43.2466L59.3562 43.7223L58.8335 44.0543L58.1373 44.2428L40.6201 45.1847L40.818 49.8271L58.3786 48.9211L58.9644 49.0053L59.4751 49.2459L59.8655 49.569L60.1336 49.9366L60.2795 50.3485L60.3425 50.7648L60.6172 56.0897L60.5697 56.7787L60.4236 57.1676L60.1139 57.603L59.674 57.9308L59.2263 58.1065L58.7332 58.2082L42.8707 59.0265L41.3402 59.1436L42.2407 77.4027L42.1834 77.9015L42.0334 78.2143L41.7237 78.6498L41.1615 79.022L40.7138 79.1977L29.6556 79.7682L29.1488 79.6036L28.7642 79.3947L28.4606 79.1434L28.1491 78.7399L27.9974 78.2138L27.0496 59.8428L9.65465 60.7402L9.02751 60.6581L8.64495 60.4872L8.25847 60.2402L7.94893 59.8748L7.76168 59.4649L7.70849 59.2389L7.63568 58.6324L7.37077 53.4977L7.42417 52.9229L7.57021 52.534L7.83854 52.1006L7.92137 52.0963L7.91745 52.0203L8.31788 51.7326L8.64136 51.5634L9.0516 51.466L26.5708 50.5621L26.3294 45.8838L8.85166 46.7855L8.26594 46.7013L7.84 46.4945L7.45155 46.2094L7.14005 45.806L6.98833 45.2799L6.91748 44.7115L6.64865 39.5006L6.70205 38.9258L6.84809 38.5369L7.11642 38.1036L7.19925 38.0993L7.19533 38.0233L7.59576 37.7356L7.91924 37.5664L8.32948 37.469L21.3343 36.798L21.0169 36.2805L20.5674 35.6172L19.9385 34.6963L19.2643 33.7014L18.5447 32.6325L17.9612 31.7855L17.2416 30.7166L11.1735 21.7625L10.454 20.6937L9.8704 19.8466L9.2849 18.9616L8.88075 18.3722L8.20652 17.3773L7.62298 16.5303L7.03747 15.6452L6.45392 14.7982L5.73435 13.7293L4.61063 12.0712L4.02709 11.2241L3.44158 10.3391L2.85803 9.49203L1.41889 7.35436L0.835345 6.50732L0.293214 5.65815L0.149342 5.2842L0.0863404 4.86795L0.22061 4.25084L0.410032 3.89784L0.763157 3.49825L1.16555 3.24867L1.40816 3.12175Z" fill="#0077B6"/>
</svg>
